<svg width="56" height="57" viewBox="0 0 56 57" fill="none" xmlns="http://www.w3.org/2000/svg">
<g clip-path="url(#clip0_8_1580)">
<path d="M46.6666 37.7893C46.5225 37.9343 46.3512 38.0493 46.1624 38.1278C45.9737 38.2063 45.7713 38.2467 45.5669 38.2467C45.3624 38.2467 45.16 38.2063 44.9713 38.1278C44.7826 38.0493 44.6112 37.9343 44.4671 37.7893L42.2675 35.5898C42.1226 35.4456 42.0075 35.2743 41.929 35.0855C41.8505 34.8968 41.8101 34.6944 41.8101 34.49C41.8101 34.2856 41.8505 34.0832 41.929 33.8944C42.0075 33.7057 42.1226 33.5343 42.2675 33.3902L46.6666 28.9911C46.811 28.8465 46.9824 28.7318 47.1711 28.6535C47.3598 28.5753 47.5621 28.535 47.7664 28.535C47.9707 28.535 48.173 28.5753 48.3617 28.6535C48.5504 28.7318 48.7219 28.8465 48.8662 28.9911L51.0657 31.1906C51.2107 31.3348 51.3257 31.5061 51.4042 31.6949C51.4827 31.8836 51.5231 32.086 51.5231 32.2904C51.5231 32.4948 51.4827 32.6972 51.4042 32.886C51.3257 33.0747 51.2107 33.2461 51.0657 33.3902L46.6666 37.7893ZM23.3333 14.456C23.1892 14.6009 23.0178 14.716 22.8291 14.7945C22.6403 14.873 22.4379 14.9134 22.2335 14.9134C22.0291 14.9134 21.8267 14.873 21.638 14.7945C21.4492 14.716 21.2779 14.6009 21.1338 14.456L18.9342 12.2564C18.7892 12.1123 18.6742 11.9409 18.5957 11.7522C18.5172 11.5634 18.4768 11.3611 18.4768 11.1566C18.4768 10.9522 18.5172 10.7498 18.5957 10.5611C18.6742 10.3724 18.7892 10.201 18.9342 10.0569L23.3333 5.65775C23.4776 5.51317 23.6491 5.39847 23.8378 5.3202C24.0265 5.24194 24.2288 5.20166 24.4331 5.20166C24.6374 5.20166 24.8397 5.24194 25.0284 5.3202C25.2171 5.39847 25.3885 5.51317 25.5329 5.65775L27.7324 7.85731C27.8774 8.00143 27.9924 8.1728 28.0709 8.36154C28.1494 8.55028 28.1898 8.75267 28.1898 8.95708C28.1898 9.1615 28.1494 9.36389 28.0709 9.55263C27.9924 9.74137 27.8774 9.91273 27.7324 10.0569L23.3333 14.456Z" fill="#66757F"/>
<path d="M3.11108 34.9459C6.22219 34.9459 20.2222 36.5015 20.2222 36.5015C20.2222 36.5015 21.7777 50.5015 21.7777 53.6126C21.7777 56.7237 18.6666 56.7237 17.1111 55.1681C15.5555 53.6126 10.8889 45.8348 10.8889 45.8348C10.8889 45.8348 3.11108 41.1681 1.55553 39.6126C-2.97427e-05 38.057 -2.97427e-05 34.9459 3.11108 34.9459ZM6.22219 10.1177C10.8889 10.057 45.1111 11.6126 45.1111 11.6126C45.1111 11.6126 46.5484 45.8348 46.6075 50.5015C46.6666 55.1681 42.3095 56.7268 40.6 50.503C38.8904 44.2793 32.6666 24.057 32.6666 24.057C32.6666 24.057 10.9589 17.1861 6.21441 16.1206C-2.99811e-05 14.7237 1.55397 10.1768 6.22219 10.1177Z" fill="#55ACEE"/>
<path d="M42 5.39031C45.1111 2.2792 52.8889 0.723642 54.4444 2.2792C56 3.83475 54.4444 11.6125 51.3333 14.7236C48.2222 17.8348 21.7778 42.7236 21.7778 42.7236C21.7778 42.7236 11.6666 49.7236 9.33331 47.3903C6.99997 45.057 14 34.9459 14 34.9459C14 34.9459 38.8889 8.50142 42 5.39031Z" fill="#CCD6DD"/>
<path d="M21.7778 34.9459C21.7778 34.9459 22.5556 35.7237 15.5556 42.7237C8.55556 49.7237 7.77779 48.9459 7.77779 48.9459C7.77779 48.9459 7.00001 48.1682 14 41.1682C21 34.1682 21.7778 34.9459 21.7778 34.9459ZM45.1111 6.94594C46.3488 6.94594 47.5358 7.4376 48.411 8.31277C49.2861 9.18794 49.7778 10.3749 49.7778 11.6126H51.03C51.2073 11.1226 51.3333 10.6093 51.3333 10.057C51.3333 8.81937 50.8417 7.63239 49.9665 6.75722C49.0913 5.88205 47.9044 5.39038 46.6667 5.39038C46.1145 5.39038 45.6011 5.51638 45.1111 5.69371V6.94594Z" fill="#66757F"/>
</g>
<defs>
<clipPath id="clip0_8_1580">
<rect width="56" height="56" fill="white" transform="translate(0 0.723633)"/>
</clipPath>
</defs>
</svg>
