<svg width="149" height="51" viewBox="0 0 149 51" fill="none" xmlns="http://www.w3.org/2000/svg">
<g clip-path="url(#clip0_59_1655)">
<path d="M137.135 0.564127H11.8721C11.4155 0.564127 10.9644 0.564127 10.509 0.566617C10.1278 0.569107 9.74965 0.576342 9.36479 0.58243C8.52869 0.592269 7.69455 0.665826 6.86963 0.802461C6.04587 0.942071 5.24791 1.20528 4.50274 1.58317C3.75849 1.96427 3.07845 2.45946 2.48728 3.05078C1.89301 3.64045 1.39764 4.32202 1.02022 5.06929C0.641752 5.81507 0.379324 6.61425 0.241995 7.43921C0.103361 8.26313 0.028761 9.09656 0.0188641 9.93201C0.00730904 10.3138 0.0060888 10.6968 0 11.0786V39.8594C0.0060888 40.246 0.00730904 40.6206 0.0188641 41.0073C0.028764 41.8427 0.103364 42.6761 0.241995 43.5C0.378945 44.3254 0.641388 45.125 1.02022 45.8711C1.39747 46.616 1.89291 47.2948 2.48728 47.8812C3.0762 48.4751 3.75669 48.9706 4.50274 49.3488C5.2479 49.7277 6.04578 49.9925 6.86963 50.1343C7.69469 50.2698 8.52874 50.3434 9.36479 50.3544C9.74965 50.3629 10.1278 50.3677 10.509 50.3677C10.9644 50.3702 11.4156 50.3702 11.8721 50.3702H137.135C137.582 50.3702 138.037 50.3702 138.484 50.3677C138.864 50.3677 139.253 50.3629 139.632 50.3544C140.467 50.344 141.299 50.2704 142.123 50.1343C142.949 49.9915 143.75 49.7268 144.499 49.3488C145.244 48.9704 145.924 48.4749 146.512 47.8812C147.105 47.2925 147.602 46.6142 147.983 45.8711C148.359 45.1245 148.619 44.3249 148.754 43.5C148.893 42.676 148.97 41.8428 148.985 41.0073C148.99 40.6206 148.99 40.246 148.99 39.8594C149 39.407 149 38.9572 149 38.4974V12.4381C149 11.9821 149 11.5297 148.99 11.0786C148.99 10.6968 148.99 10.3138 148.985 9.93196C148.97 9.09644 148.893 8.2632 148.754 7.43916C148.619 6.61467 148.359 5.81556 147.983 5.06924C147.215 3.57141 145.996 2.3522 144.499 1.58306C143.75 1.20609 142.949 0.942952 142.123 0.802349C141.299 0.665112 140.467 0.59153 139.632 0.582256C139.253 0.57618 138.864 0.568883 138.484 0.566455C138.037 0.563965 137.582 0.563965 137.135 0.563965V0.564127Z" fill="black"/>
<path d="M10.5151 49.2804C10.1358 49.2804 9.76556 49.2755 9.38916 49.2671C8.60942 49.2569 7.83151 49.189 7.06179 49.064C6.34408 48.9404 5.6488 48.7104 4.9989 48.3818C4.35496 48.0558 3.76763 47.6284 3.25942 47.1159C2.74385 46.6095 2.31462 46.0221 1.98873 45.3771C1.65925 44.7279 1.43123 44.032 1.31261 43.3136C1.18452 42.5418 1.11521 41.7613 1.1053 40.979C1.0974 40.7164 1.08707 39.842 1.08707 39.842V11.0783C1.08707 11.0783 1.09807 10.2174 1.10536 9.96446C1.11485 9.18336 1.18376 8.4041 1.31147 7.63345C1.4303 6.91316 1.6585 6.21525 1.98816 5.56388C2.31285 4.91928 2.7397 4.33147 3.25216 3.82322C3.76405 3.31015 4.35325 2.88055 4.99829 2.55009C5.6467 2.22247 6.34066 1.99416 7.05693 1.8728C7.82917 1.7465 8.60978 1.67822 9.39222 1.66852L10.5157 1.65332H138.478L139.615 1.66913C140.391 1.67835 141.164 1.74602 141.929 1.87158C142.653 1.99446 143.354 2.22437 144.01 2.55374C145.302 3.2197 146.353 4.27332 147.017 5.56692C147.341 6.21379 147.566 6.906 147.683 7.62008C147.812 8.39705 147.885 9.18243 147.9 9.96994C147.903 10.3226 147.903 10.7013 147.903 11.0783C147.913 11.5452 147.913 11.9897 147.913 12.4377V38.4971C147.913 38.9495 147.913 39.3909 147.903 39.8359C147.903 40.2408 147.903 40.6118 147.898 40.9935C147.884 41.767 147.813 42.5384 147.686 43.3014C147.569 44.0249 147.343 44.7263 147.013 45.3808C146.685 46.0189 146.258 46.6012 145.749 47.1062C145.24 47.6215 144.652 48.0514 144.006 48.3794C143.352 48.7106 142.652 48.9414 141.929 49.064C141.16 49.1897 140.382 49.2576 139.602 49.2671C139.237 49.2755 138.855 49.2804 138.484 49.2804L137.135 49.2829L10.5151 49.2804Z" fill="black"/>
<path d="M30.8406 25.8418C30.854 24.8025 31.1301 23.7835 31.6431 22.8796C32.1561 21.9757 32.8895 21.2162 33.7749 20.6719C33.2124 19.8685 32.4704 19.2074 31.6077 18.7411C30.745 18.2747 29.7855 18.0159 28.8053 17.9852C26.7144 17.7657 24.6873 19.2364 23.6218 19.2364C22.5357 19.2364 20.8953 18.007 19.1287 18.0434C17.9861 18.0803 16.8725 18.4125 15.8964 19.0078C14.9204 19.6031 14.1152 20.441 13.5592 21.44C11.1511 25.6093 12.9474 31.7367 15.2541 35.1069C16.4083 36.7571 17.7571 38.6005 19.5221 38.5351C21.2492 38.4635 21.8942 37.4338 23.979 37.4338C26.0444 37.4338 26.6496 38.5351 28.4503 38.4936C30.3036 38.4635 31.4712 36.836 32.5849 35.1701C33.4141 33.9942 34.0522 32.6946 34.4755 31.3194C33.3988 30.8641 32.48 30.1018 31.8336 29.1277C31.1872 28.1536 30.8419 27.0108 30.8406 25.8418Z" fill="white"/>
<path d="M27.4392 15.7687C28.4497 14.5557 28.9475 12.9965 28.8269 11.4224C27.2832 11.5845 25.8571 12.3223 24.833 13.4888C24.3323 14.0587 23.9488 14.7217 23.7044 15.4398C23.4601 16.158 23.3597 16.9173 23.4089 17.6743C24.1811 17.6822 24.945 17.5149 25.6431 17.1848C26.3412 16.8547 26.9553 16.3705 27.4392 15.7687Z" fill="white"/>
<path d="M52.6722 34.3572H46.7784L45.363 38.5365H42.8666L48.4491 23.0742H51.0428L56.6253 38.5365H54.0863L52.6722 34.3572ZM47.3888 32.4287H52.0606L49.7576 25.646H49.6931L47.3888 32.4287Z" fill="white"/>
<path d="M68.6813 32.8998C68.6813 36.4031 66.8062 38.6538 63.9767 38.6538C63.2599 38.6913 62.547 38.5262 61.9198 38.1774C61.2925 37.8286 60.7761 37.3101 60.4297 36.6815H60.3762V42.2652H58.0622V27.2626H60.302V29.1376H60.3446C60.7069 28.512 61.232 27.9963 61.8641 27.6453C62.4961 27.2944 63.2115 27.1214 63.9341 27.1447C66.7952 27.1447 68.6813 29.4064 68.6813 32.8998ZM66.3028 32.8998C66.3028 30.6175 65.1233 29.117 63.3237 29.117C61.5557 29.117 60.3665 30.6491 60.3665 32.8998C60.3665 35.1713 61.5557 36.6925 63.3237 36.6925C65.1233 36.6925 66.3028 35.2029 66.3028 32.8998Z" fill="white"/>
<path d="M81.089 32.8998C81.089 36.4031 79.214 38.6538 76.3844 38.6538C75.6676 38.6913 74.9548 38.5262 74.3275 38.1774C73.7002 37.8286 73.1838 37.3101 72.8374 36.6815H72.7839V42.2652H70.4699V27.2626H72.7097V29.1376H72.7523C73.1146 28.512 73.6397 27.9963 74.2718 27.6453C74.9038 27.2944 75.6192 27.1214 76.3418 27.1447C79.203 27.1447 81.089 29.4064 81.089 32.8998ZM78.7106 32.8998C78.7106 30.6175 77.5311 29.117 75.7314 29.117C73.9634 29.117 72.7742 30.6491 72.7742 32.8998C72.7742 35.1713 73.9634 36.6924 75.7314 36.6924C77.5311 36.6924 78.7106 35.2029 78.7106 32.8998H78.7106Z" fill="white"/>
<path d="M89.2899 34.2283C89.4613 35.7617 90.9509 36.7684 92.9864 36.7684C94.9369 36.7684 96.3401 35.7616 96.3401 34.3791C96.3401 33.1789 95.4938 32.4603 93.4898 31.9678L91.4859 31.4851C88.6467 30.7993 87.3285 29.4714 87.3285 27.3167C87.3285 24.6489 89.6535 22.8164 92.9548 22.8164C96.2221 22.8164 98.4619 24.6489 98.5373 27.3167H96.2014C96.0616 25.7736 94.786 24.8422 92.922 24.8422C91.0579 24.8422 89.7823 25.7846 89.7823 27.1562C89.7823 28.2494 90.597 28.8926 92.59 29.385L94.2936 29.8033C97.466 30.5536 98.7841 31.8279 98.7841 34.0896C98.7841 36.9824 96.4799 38.7942 92.8149 38.7942C89.3859 38.7942 87.0707 37.025 86.9211 34.2282L89.2899 34.2283Z" fill="white"/>
<path d="M103.779 24.5947V27.2626H105.922V29.095H103.779V35.3098C103.779 36.2753 104.208 36.7252 105.15 36.7252C105.405 36.7208 105.659 36.7029 105.911 36.6717V38.4932C105.488 38.5724 105.057 38.6082 104.626 38.6002C102.344 38.6002 101.454 37.743 101.454 35.5566V29.095H99.8145V27.2626H101.454V24.5947H103.779Z" fill="white"/>
<path d="M107.164 32.8999C107.164 29.3529 109.253 27.124 112.51 27.124C115.779 27.124 117.858 29.3528 117.858 32.8999C117.858 36.4566 115.79 38.6757 112.51 38.6757C109.232 38.6757 107.164 36.4566 107.164 32.8999ZM115.5 32.8999C115.5 30.4667 114.385 29.0307 112.51 29.0307C110.635 29.0307 109.522 30.4777 109.522 32.8999C109.522 35.3428 110.635 36.7679 112.51 36.7679C114.385 36.7679 115.5 35.3428 115.5 32.8999H115.5Z" fill="white"/>
<path d="M119.766 27.2625H121.973V29.1813H122.027C122.176 28.582 122.527 28.0524 123.021 27.6815C123.515 27.3106 124.121 27.121 124.738 27.1445C125.005 27.1436 125.271 27.1726 125.531 27.2309V29.3953C125.194 29.2924 124.843 29.2452 124.491 29.2555C124.155 29.2418 123.82 29.3011 123.509 29.4292C123.198 29.5573 122.918 29.7512 122.689 29.9976C122.46 30.244 122.287 30.5371 122.182 30.8567C122.077 31.1763 122.042 31.5148 122.08 31.8491V38.5357H119.766L119.766 27.2625Z" fill="white"/>
<path d="M136.2 35.2248C135.889 37.2713 133.896 38.6757 131.346 38.6757C128.066 38.6757 126.031 36.4785 126.031 32.9534C126.031 29.4173 128.077 27.124 131.248 27.124C134.367 27.124 136.329 29.2666 136.329 32.6846V33.4775H128.367V33.6173C128.33 34.0322 128.382 34.4501 128.519 34.8434C128.656 35.2367 128.876 35.5963 129.162 35.8983C129.449 36.2003 129.797 36.4378 130.183 36.5951C130.568 36.7523 130.983 36.8257 131.399 36.8104C131.946 36.8617 132.495 36.735 132.964 36.4493C133.433 36.1636 133.797 35.7342 134.003 35.2248L136.2 35.2248ZM128.378 31.8602H134.014C134.034 31.4872 133.978 31.1139 133.847 30.7637C133.717 30.4136 133.516 30.0941 133.256 29.8255C132.997 29.5568 132.684 29.3447 132.339 29.2025C131.993 29.0603 131.622 28.991 131.248 28.999C130.872 28.9968 130.498 29.0692 130.149 29.2121C129.801 29.3549 129.484 29.5655 129.217 29.8315C128.95 30.0975 128.738 30.4137 128.594 30.7619C128.45 31.1101 128.377 31.4834 128.378 31.8602V31.8602Z" fill="white"/>
<path d="M47.0998 11.4357C47.585 11.4009 48.0718 11.4742 48.5251 11.6503C48.9785 11.8264 49.3872 12.1009 49.7216 12.4541C50.056 12.8072 50.3079 13.2302 50.4591 13.6925C50.6102 14.1548 50.6569 14.6448 50.5957 15.1274C50.5957 17.5009 49.3129 18.8653 47.0998 18.8653H44.4162V11.4357H47.0998ZM45.5701 17.8146H46.9709C47.3176 17.8353 47.6645 17.7785 47.9864 17.6482C48.3084 17.518 48.5972 17.3175 48.8319 17.0616C49.0666 16.8056 49.2413 16.5006 49.3432 16.1686C49.4451 15.8366 49.4717 15.4861 49.4211 15.1425C49.4681 14.8003 49.4387 14.4519 49.3352 14.1224C49.2318 13.7928 49.0566 13.4903 48.8225 13.2363C48.5883 12.9824 48.3009 12.7834 47.9808 12.6536C47.6607 12.5238 47.3158 12.4665 46.9709 12.4856H45.5701V17.8146Z" fill="white"/>
<path d="M51.8996 16.0595C51.8644 15.6911 51.9065 15.3193 52.0234 14.9681C52.1402 14.6169 52.3292 14.294 52.5781 14.02C52.8271 13.7461 53.1306 13.5273 53.469 13.3775C53.8075 13.2278 54.1736 13.1504 54.5437 13.1504C54.9139 13.1504 55.28 13.2278 55.6184 13.3775C55.9569 13.5273 56.2604 13.7461 56.5094 14.02C56.7583 14.294 56.9473 14.6169 57.0641 14.9681C57.181 15.3193 57.2231 15.6911 57.1879 16.0595C57.2238 16.4284 57.1821 16.8007 57.0656 17.1524C56.9491 17.5042 56.7602 17.8277 56.5112 18.1022C56.2622 18.3766 55.9585 18.596 55.6197 18.746C55.2808 18.8961 54.9143 18.9737 54.5437 18.9737C54.1732 18.9737 53.8067 18.8961 53.4678 18.746C53.129 18.596 52.8253 18.3766 52.5763 18.1022C52.3273 17.8277 52.1384 17.5042 52.0219 17.1524C51.9054 16.8007 51.8637 16.4284 51.8996 16.0595ZM56.0497 16.0595C56.0497 14.8442 55.5037 14.1334 54.5456 14.1334C53.5837 14.1334 53.0427 14.8442 53.0427 16.0595C53.0427 17.2846 53.5838 17.9899 54.5456 17.9899C55.5038 17.9899 56.0497 17.2798 56.0497 16.0595H56.0497Z" fill="white"/>
<path d="M64.217 18.8646H63.0692L61.9104 14.7352H61.8228L60.6689 18.8646H59.5319L57.9864 13.2578H59.1088L60.1132 17.5362H60.1958L61.3486 13.2578H62.4101L63.5629 17.5362H63.6504L64.6499 13.2578H65.7565L64.217 18.8646Z" fill="white"/>
<path d="M67.0559 13.2583H68.1211V14.149H68.2038C68.3441 13.8291 68.5806 13.5609 68.8806 13.3818C69.1805 13.2028 69.5288 13.1217 69.877 13.1501C70.1498 13.1295 70.4237 13.1707 70.6785 13.2704C70.9332 13.3701 71.1623 13.5259 71.3486 13.7262C71.535 13.9265 71.674 14.1661 71.7551 14.4274C71.8363 14.6886 71.8577 14.9648 71.8176 15.2354V18.8651H70.7111V15.5133C70.7111 14.6123 70.3196 14.1642 69.5012 14.1642C69.316 14.1556 69.1311 14.1871 68.9592 14.2566C68.7873 14.3261 68.6325 14.432 68.5053 14.5669C68.3781 14.7019 68.2817 14.8627 68.2225 15.0385C68.1633 15.2142 68.1428 15.4006 68.1624 15.585V18.8651H67.0559L67.0559 13.2583Z" fill="white"/>
<path d="M73.5808 11.0693H74.6873V18.8649H73.5808V11.0693Z" fill="white"/>
<path d="M76.2263 16.0596C76.1911 15.6912 76.2332 15.3194 76.3501 14.9681C76.467 14.6169 76.656 14.294 76.905 14.0201C77.1539 13.7461 77.4574 13.5273 77.7959 13.3775C78.1345 13.2278 78.5005 13.1504 78.8707 13.1504C79.2409 13.1504 79.607 13.2278 79.9455 13.3775C80.284 13.5273 80.5875 13.7461 80.8365 14.0201C81.0855 14.294 81.2744 14.6169 81.3913 14.9681C81.5082 15.3194 81.5504 15.6912 81.5151 16.0596C81.551 16.4285 81.5093 16.8008 81.3928 17.1526C81.2762 17.5043 81.0873 17.8279 80.8383 18.1023C80.5892 18.3767 80.2855 18.596 79.9467 18.7461C79.6078 18.8962 79.2413 18.9737 78.8707 18.9737C78.5001 18.9737 78.1336 18.8962 77.7948 18.7461C77.4559 18.596 77.1522 18.3767 76.9032 18.1023C76.6541 17.8279 76.4652 17.5043 76.3487 17.1526C76.2321 16.8008 76.1904 16.4285 76.2263 16.0596ZM80.3764 16.0596C80.3764 14.8443 79.8304 14.1336 78.8722 14.1336C77.9104 14.1336 77.3693 14.8443 77.3693 16.0597C77.3693 17.2847 77.9104 17.99 78.8722 17.99C79.8304 17.99 80.3764 17.2799 80.3764 16.0596H80.3764Z" fill="white"/>
<path d="M82.6795 17.2798C82.6795 16.2706 83.431 15.6887 84.7649 15.606L86.2836 15.5185V15.0345C86.2836 14.4423 85.8921 14.108 85.1358 14.108C84.5181 14.108 84.09 14.3347 83.9672 14.7311H82.8959C83.009 13.7681 83.9149 13.1504 85.1868 13.1504C86.5925 13.1504 87.3853 13.8502 87.3853 15.0345V18.8654H86.3201V18.0775H86.2326C86.0549 18.3601 85.8053 18.5906 85.5095 18.7452C85.2136 18.8999 84.882 18.9732 84.5484 18.9578C84.3131 18.9823 84.0752 18.9572 83.8501 18.8841C83.625 18.811 83.4178 18.6916 83.2417 18.5335C83.0656 18.3754 82.9246 18.1821 82.8278 17.9662C82.7309 17.7503 82.6804 17.5165 82.6795 17.2798ZM86.2836 16.8007V16.332L84.9145 16.4195C84.1423 16.4712 83.7921 16.7338 83.7921 17.2281C83.7921 17.7328 84.2299 18.0264 84.8318 18.0264C85.0082 18.0443 85.1863 18.0265 85.3557 17.974C85.525 17.9216 85.6821 17.8357 85.8176 17.7213C85.953 17.607 86.0641 17.4665 86.1442 17.3084C86.2242 17.1502 86.2717 16.9776 86.2836 16.8007Z" fill="white"/>
<path d="M88.8396 16.0591C88.8396 14.2874 89.7504 13.1651 91.167 13.1651C91.5174 13.1489 91.8651 13.2329 92.1696 13.407C92.4741 13.5812 92.7227 13.8385 92.8863 14.1487H92.969V11.0693H94.0756V18.8649H93.0152V17.9791H92.9277C92.7514 18.2872 92.4941 18.5413 92.1838 18.7137C91.8734 18.8862 91.5218 18.9704 91.167 18.9573C89.7406 18.9574 88.8396 17.835 88.8396 16.0591ZM89.9826 16.0591C89.9826 17.2483 90.5432 17.9639 91.4807 17.9639C92.4134 17.9639 92.9897 17.238 92.9897 16.064C92.9897 14.8954 92.4073 14.1591 91.4807 14.1591C90.5493 14.1591 89.9826 14.8796 89.9826 16.0591H89.9826Z" fill="white"/>
<path d="M98.6536 16.0595C98.6184 15.6911 98.6605 15.3193 98.7774 14.9681C98.8942 14.6169 99.0832 14.294 99.3321 14.02C99.5811 13.7461 99.8845 13.5273 100.223 13.3775C100.562 13.2278 100.928 13.1504 101.298 13.1504C101.668 13.1504 102.034 13.2278 102.372 13.3775C102.711 13.5273 103.014 13.7461 103.263 14.02C103.512 14.294 103.701 14.6169 103.818 14.9681C103.935 15.3193 103.977 15.6911 103.942 16.0595C103.978 16.4284 103.936 16.8007 103.82 17.1524C103.703 17.5042 103.514 17.8277 103.265 18.1022C103.016 18.3766 102.712 18.596 102.374 18.746C102.035 18.8961 101.668 18.9737 101.298 18.9737C100.927 18.9737 100.561 18.8961 100.222 18.746C99.883 18.596 99.5793 18.3766 99.3303 18.1022C99.0813 17.8277 98.8924 17.5042 98.7759 17.1524C98.6593 16.8007 98.6177 16.4284 98.6536 16.0595ZM102.804 16.0595C102.804 14.8442 102.258 14.1334 101.3 14.1334C100.338 14.1334 99.7967 14.8442 99.7967 16.0595C99.7967 17.2846 100.338 17.9899 101.3 17.9899C102.258 17.9899 102.804 17.2798 102.804 16.0595Z" fill="white"/>
<path d="M105.427 13.2583H106.492V14.149H106.575C106.715 13.8291 106.952 13.5609 107.252 13.3818C107.552 13.2028 107.9 13.1217 108.248 13.1501C108.521 13.1295 108.795 13.1707 109.05 13.2704C109.304 13.3701 109.533 13.5259 109.72 13.7262C109.906 13.9265 110.045 14.1661 110.126 14.4274C110.207 14.6886 110.229 14.9648 110.189 15.2354V18.8651H109.082V15.5133C109.082 14.6123 108.691 14.1642 107.872 14.1642C107.687 14.1556 107.502 14.1871 107.33 14.2566C107.158 14.3261 107.004 14.432 106.876 14.5669C106.749 14.7019 106.653 14.8627 106.594 15.0385C106.534 15.2142 106.514 15.4006 106.534 15.585V18.8651H105.427V13.2583Z" fill="white"/>
<path d="M116.441 11.8623V13.2838H117.656V14.2158H116.441V17.0989C116.441 17.6862 116.683 17.9434 117.234 17.9434C117.375 17.9429 117.516 17.9344 117.656 17.9178V18.8395C117.457 18.8751 117.256 18.894 117.054 18.8961C115.823 18.8961 115.333 18.4632 115.333 17.3822V14.2158H114.443V13.2837H115.333V11.8623H116.441Z" fill="white"/>
<path d="M119.167 11.0693H120.264V14.1591H120.352C120.499 13.8362 120.742 13.5665 121.048 13.3868C121.354 13.2071 121.708 13.126 122.061 13.1547C122.333 13.14 122.604 13.1853 122.856 13.2874C123.108 13.3896 123.334 13.5461 123.519 13.7457C123.703 13.9454 123.841 14.1832 123.923 14.4424C124.005 14.7016 124.029 14.9756 123.992 15.245V18.8649H122.885V15.518C122.885 14.6224 122.468 14.1688 121.686 14.1688C121.496 14.1532 121.304 14.1794 121.125 14.2454C120.946 14.3115 120.784 14.4159 120.649 14.5513C120.515 14.6867 120.412 14.8498 120.347 15.0293C120.282 15.2088 120.257 15.4002 120.274 15.5903V18.8649H119.168L119.167 11.0693Z" fill="white"/>
<path d="M130.444 17.3517C130.294 17.8641 129.968 18.3073 129.524 18.6039C129.08 18.9004 128.545 19.0313 128.014 18.9738C127.645 18.9835 127.278 18.9128 126.939 18.7664C126.599 18.6201 126.296 18.4016 126.05 18.1263C125.803 17.8509 125.62 17.5253 125.512 17.1719C125.404 16.8185 125.374 16.4458 125.424 16.0798C125.375 15.7126 125.406 15.3391 125.513 14.9847C125.621 14.6302 125.804 14.303 126.049 14.0252C126.294 13.7475 126.596 13.5256 126.934 13.3747C127.272 13.2238 127.639 13.1473 128.01 13.1505C129.57 13.1505 130.511 14.2163 130.511 15.977V16.3631H126.552V16.4251C126.534 16.6309 126.56 16.838 126.628 17.0331C126.695 17.2283 126.802 17.4073 126.943 17.5585C127.084 17.7097 127.254 17.8299 127.444 17.9113C127.634 17.9928 127.838 18.0336 128.045 18.0313C128.31 18.0631 128.578 18.0155 128.815 17.8944C129.053 17.7734 129.249 17.5844 129.379 17.3516L130.444 17.3517ZM126.552 15.5447H129.384C129.398 15.3565 129.372 15.1675 129.309 14.9898C129.245 14.8121 129.145 14.6497 129.015 14.5129C128.885 14.3761 128.728 14.268 128.554 14.1956C128.38 14.1231 128.192 14.0879 128.003 14.0923C127.812 14.0899 127.622 14.1258 127.445 14.1979C127.268 14.2701 127.107 14.377 126.971 14.5124C126.836 14.6477 126.729 14.8088 126.657 14.9861C126.585 15.1634 126.549 15.3533 126.552 15.5447H126.552Z" fill="white"/>
</g>
<defs>
<clipPath id="clip0_59_1655">
<rect width="149" height="49.8061" fill="white" transform="translate(0 0.563965)"/>
</clipPath>
</defs>
</svg>
