<svg width="50" height="51" viewBox="0 0 50 51" fill="none" xmlns="http://www.w3.org/2000/svg">
<rect y="0.723633" width="50" height="50" rx="25" fill="#E8F2EE"/>
<path d="M11.805 19.8868C15.5373 16.8632 20.1966 15.2165 25 15.2237C29.9992 15.2237 34.59 16.9702 38.195 19.8868L36.7297 21.7022C33.4119 19.0142 29.2699 17.5505 25 17.557C20.5562 17.557 16.4763 19.1087 13.2703 21.7022L11.805 19.8868ZM15.4695 24.4252C18.1652 22.2412 21.5306 21.0518 25 21.057C28.4692 21.0518 31.8344 22.2407 34.5305 24.424L33.064 26.2393C30.783 24.3917 27.9354 23.3857 25 23.3903C21.9457 23.3903 19.1398 24.4578 16.936 26.2393L15.4695 24.424V24.4252ZM19.1352 28.9635C20.794 27.6194 22.865 26.8873 25 26.8903C27.2213 26.8903 29.2618 27.6662 30.8648 28.9623L29.3983 30.7777C28.1542 29.7699 26.6011 29.2212 25 29.2237C23.334 29.2237 21.8033 29.8058 20.6017 30.7777L19.1352 28.9623V28.9635ZM22.8008 33.5018C23.4227 32.9975 24.1993 32.7227 25 32.7237C25.833 32.7237 26.5983 33.0153 27.1992 33.5007L25 36.2237L22.8008 33.5007V33.5018Z" fill="#645BB5"/>
</svg>
