<svg width="169" height="51" viewBox="0 0 169 51" fill="none" xmlns="http://www.w3.org/2000/svg">
<g clip-path="url(#clip0_59_1690)">
<path fill-rule="evenodd" clip-rule="evenodd" d="M162.498 50.564H6.2523C2.80639 50.564 0 47.746 0 44.314V6.81396C0 3.36945 2.80639 0.563965 6.2523 0.563965H162.498C165.941 0.563965 168.75 3.36945 168.75 6.81396V44.314C168.75 47.746 165.941 50.564 162.498 50.564Z" fill="black"/>
<path fill-rule="evenodd" clip-rule="evenodd" d="M162.498 1.56459C165.388 1.56459 167.753 3.92431 167.753 6.81396V44.314C167.753 47.2036 165.403 49.5633 162.498 49.5633H6.2523C3.36209 49.5633 0.996518 47.2036 0.996518 44.314V6.81396C0.996518 3.92431 3.34656 1.56459 6.2523 1.56459H162.498ZM162.498 0.563965H6.2523C2.80639 0.563965 0 3.38192 0 6.81396V44.314C0 47.7585 2.80639 50.564 6.2523 50.564H162.498C165.941 50.564 168.75 47.7585 168.75 44.314V6.81396C168.75 3.38192 165.941 0.563965 162.498 0.563965Z" fill="black"/>
<path d="M88.8981 17.1039C87.7712 17.1039 86.8213 16.708 86.07 15.9287C85.325 15.1712 84.909 14.127 84.9276 13.0609C84.9276 11.9231 85.3126 10.9599 86.07 10.1962C86.8182 9.41688 87.7681 9.021 88.895 9.021C90.0095 9.021 90.9595 9.41688 91.7231 10.1962C92.4806 10.9848 92.8656 11.9481 92.8656 13.0609C92.8531 14.2018 92.4682 15.165 91.7231 15.9256C90.975 16.7111 90.025 17.1039 88.8981 17.1039ZM55.3675 17.1039C54.2655 17.1039 53.3093 16.7143 52.527 15.9443C51.7509 15.1775 51.3566 14.208 51.3566 13.064C51.3566 11.92 51.7509 10.9505 52.527 10.1837C53.2938 9.41376 54.2499 9.02411 55.3675 9.02411C55.9139 9.02411 56.4447 9.13322 56.9539 9.35454C57.4537 9.56962 57.8603 9.86264 58.1615 10.2211L58.236 10.3115L57.3947 11.1407L57.3078 11.0378C56.8328 10.4705 56.1964 10.1931 55.3551 10.1931C54.6038 10.1931 53.9488 10.4611 53.4086 10.9911C52.8654 11.5241 52.5891 12.2224 52.5891 13.0671C52.5891 13.9119 52.8654 14.6101 53.4086 15.1432C53.9488 15.6731 54.6038 15.9412 55.3551 15.9412C56.156 15.9412 56.8297 15.6731 57.3543 15.1432C57.6648 14.8315 57.8572 14.3951 57.9255 13.8433H55.2278V12.6775H59.0835L59.099 12.7835C59.1269 12.9798 59.1549 13.1825 59.1549 13.3695C59.1549 14.4449 58.832 15.3146 58.1925 15.9568C57.4661 16.7174 56.5161 17.1039 55.3675 17.1039ZM99.9498 16.9387H98.7608L95.1194 11.0877L95.1504 12.1413V16.9356H93.9614V9.18933H95.318L95.3553 9.24855L98.7794 14.7598L98.7484 13.7093V9.18933H99.9498V16.9387ZM79.9637 16.9387H78.7592V10.3552H76.6699V9.18933H82.0498V10.3552H79.9606V16.9387H79.9637ZM75.6889 16.9387H74.4875V9.18933H75.6889V16.9387ZM68.9368 16.9387H67.7354V10.3552H65.6462V9.18933H71.0261V10.3552H68.9368V16.9387ZM64.8856 16.9262H60.2787V9.18933H64.8856V10.3552H61.4832V12.4811H64.5534V13.6345H61.4832V15.7604H64.8856V16.9262ZM86.9517 15.1276C87.4887 15.6669 88.1407 15.9381 88.8981 15.9381C89.6773 15.9381 90.3137 15.6731 90.8446 15.1276C91.3723 14.5977 91.6393 13.9025 91.6393 13.064C91.6393 12.2255 91.3723 11.5272 90.8477 11.0004C90.3106 10.4611 89.6556 10.1899 88.9012 10.1899C88.122 10.1899 87.4856 10.4549 86.9579 11.0004C86.4301 11.5303 86.1632 12.2255 86.1632 13.064C86.1632 13.9025 86.427 14.6008 86.9517 15.1276Z" fill="white"/>
<path fill-rule="evenodd" clip-rule="evenodd" d="M84.816 27.7585C81.8823 27.7585 79.5043 29.9935 79.5043 33.0764C79.5043 36.1313 81.8979 38.3944 84.816 38.3944C87.7497 38.3944 90.1277 36.1438 90.1277 33.0764C90.1277 29.9935 87.7497 27.7585 84.816 27.7585ZM84.816 36.2872C83.211 36.2872 81.8296 34.953 81.8296 33.064C81.8296 31.1469 83.2141 29.8408 84.816 29.8408C86.421 29.8408 87.8025 31.1469 87.8025 33.064C87.8056 34.9655 86.421 36.2872 84.816 36.2872ZM73.2272 27.7585C70.2935 27.7585 67.9155 29.9935 67.9155 33.0764C67.9155 36.1313 70.309 38.3944 73.2272 38.3944C76.1609 38.3944 78.5389 36.1438 78.5389 33.0764C78.5389 29.9935 76.1578 27.7585 73.2272 27.7585ZM73.2272 36.2872C71.6222 36.2872 70.2408 34.953 70.2408 33.064C70.2408 31.1469 71.6253 29.8408 73.2272 29.8408C74.8322 29.8408 76.2137 31.1469 76.2137 33.064C76.2137 34.9655 74.8322 36.2872 73.2272 36.2872ZM59.4374 29.3825V31.6332H64.8173C64.6528 32.8956 64.2368 33.8277 63.6004 34.4667C62.8119 35.2585 61.5949 36.1188 59.4498 36.1188C56.1436 36.1188 53.5576 33.438 53.5576 30.1182C53.5576 26.7984 56.1436 24.1176 59.4498 24.1176C61.2348 24.1176 62.5356 24.8252 63.501 25.7292L65.0905 24.1332C63.7494 22.8426 61.9644 21.8545 59.4622 21.8545C54.9266 21.8545 51.1206 25.564 51.1206 30.1057C51.1206 34.66 54.9235 38.357 59.4622 38.357C61.9116 38.357 63.7494 37.5527 65.2023 36.0378C66.6831 34.5509 67.1519 32.453 67.1519 30.7604C67.1519 30.2335 67.1115 29.7597 67.0277 29.3576H59.4343C59.4374 29.3545 59.4374 29.3825 59.4374 29.3825ZM115.842 31.1344C115.398 29.9405 114.057 27.746 111.306 27.746C108.58 27.746 106.314 29.9 106.314 33.064C106.314 36.0503 108.556 38.3819 111.57 38.3819C113.991 38.3819 115.401 36.895 115.981 36.0222L114.184 34.8127C113.588 35.7011 112.759 36.284 111.582 36.284C110.393 36.284 109.561 35.7416 109.009 34.6724L116.09 31.7267C116.09 31.7298 115.842 31.1344 115.842 31.1344ZM108.621 32.9112C108.565 30.857 110.21 29.8127 111.387 29.8127C112.315 29.8127 113.088 30.271 113.352 30.938L108.621 32.9112ZM102.868 38.064H105.193V22.4405H102.868V38.064ZM99.0498 28.9399H98.966C98.4413 28.3133 97.4448 27.746 96.172 27.746C93.5301 27.746 91.0963 30.0808 91.0963 33.0796C91.0963 36.0658 93.5177 38.3726 96.172 38.3726C97.4293 38.3726 98.4413 37.8021 98.966 37.1631H99.0498V37.9268C99.0498 39.9561 97.9695 41.0503 96.2279 41.0503C94.8029 41.0503 93.9182 40.0216 93.5581 39.1612L91.5371 40.0091C92.1176 41.4118 93.6667 43.1481 96.2248 43.1481C98.9505 43.1481 101.26 41.5365 101.26 37.6057V28.064H99.0622V28.9399C99.0653 28.9399 99.0498 28.9399 99.0498 28.9399ZM96.38 36.2872C94.775 36.2872 93.4339 34.9405 93.4339 33.0796C93.4339 31.203 94.775 29.8439 96.38 29.8439C97.9695 29.8439 99.2019 31.2186 99.2019 33.0796C99.2174 34.9405 97.9726 36.2872 96.38 36.2872ZM126.729 22.4405H121.169V38.064H123.494V32.1475H126.732C129.306 32.1475 131.836 30.2741 131.836 27.3003C131.836 24.3264 129.315 22.4405 126.729 22.4405ZM126.797 29.9655H123.491V24.6039H126.797C128.539 24.6039 129.523 26.0471 129.523 27.2847C129.523 28.5097 128.526 29.9655 126.797 29.9655ZM141.155 27.7304C139.466 27.7304 137.725 28.4817 137.004 30.1182L139.066 30.9786C139.51 30.1182 140.323 29.8252 141.183 29.8252C142.388 29.8252 143.604 30.5484 143.632 31.8389V32.0041C143.216 31.7672 142.304 31.4056 141.211 31.4056C138.985 31.4056 136.728 32.6276 136.728 34.9187C136.728 37.0166 138.554 38.3632 140.587 38.3632C142.149 38.3632 143.008 37.6556 143.545 36.8358H143.629V38.0453H145.871V32.0602C145.871 29.2734 143.809 27.7304 141.155 27.7304ZM140.863 36.2872C140.103 36.2872 139.038 35.9131 139.038 34.953C139.038 33.7435 140.367 33.2853 141.5 33.2853C142.524 33.2853 143.008 33.5066 143.617 33.8121C143.449 35.2148 142.27 36.2747 140.863 36.2872ZM154.048 28.064L151.378 34.8408H151.294L148.528 28.064H146.026L150.177 37.5372L147.811 42.8021H150.232L156.618 28.064H154.048ZM133.118 38.064H135.443V22.4405H133.118V38.064Z" fill="white"/>
<path fill-rule="evenodd" clip-rule="evenodd" d="M12.9892 9.98065C12.629 10.3703 12.4211 10.9657 12.4211 11.745V39.3853C12.4211 40.1646 12.629 40.76 13.0016 41.134L13.0978 41.2182L28.5206 25.7319V25.3859L13.0854 9.89648L12.9892 9.98065Z" fill="url(#paint0_linear_59_1690)"/>
<path fill-rule="evenodd" clip-rule="evenodd" d="M33.6516 30.9098L28.5075 25.7446V25.383L33.6516 20.2178L33.7633 20.2864L39.848 23.7589C41.5896 24.744 41.5896 26.3711 39.848 27.3686L33.7633 30.8412L33.6516 30.9098Z" fill="url(#paint1_linear_59_1690)"/>
<path fill-rule="evenodd" clip-rule="evenodd" d="M33.7639 30.8419L28.5081 25.5645L12.9891 41.1474C13.5572 41.7583 14.5103 41.8269 15.5751 41.2315L33.7639 30.8419Z" fill="url(#paint2_linear_59_1690)"/>
<path fill-rule="evenodd" clip-rule="evenodd" d="M33.7639 20.2865L15.5751 9.91245C14.5103 9.30148 13.5541 9.38565 12.9891 9.99662L28.5081 25.564L33.7639 20.2865Z" fill="url(#paint3_linear_59_1690)"/>
<path opacity="0.2" fill-rule="evenodd" clip-rule="evenodd" d="M33.652 30.7295L15.5873 41.0349C14.5784 41.6179 13.6781 41.5773 13.0975 41.0474L13.0013 41.144L13.0975 41.2282C13.6781 41.755 14.5784 41.7987 15.5873 41.2157L33.7762 30.8417L33.652 30.7295Z" fill="black"/>
<path opacity="0.12" fill-rule="evenodd" clip-rule="evenodd" d="M39.848 27.1885L33.636 30.7297L33.7478 30.8419L39.8325 27.3693C40.7048 26.8706 41.1332 26.2159 41.1332 25.5645C41.0804 26.163 40.6365 26.7303 39.848 27.1885Z" fill="black"/>
<path opacity="0.25" fill-rule="evenodd" clip-rule="evenodd" d="M15.5751 10.0933L39.8486 23.94C40.6371 24.3857 41.081 24.9686 41.1493 25.564C41.1493 24.9125 40.7209 24.2579 39.8486 23.7592L15.5751 9.91253C13.8336 8.91191 12.4211 9.74732 12.4211 11.7454V11.9262C12.4211 9.925 13.8336 9.10517 15.5751 10.0933Z" fill="white"/>
</g>
<defs>
<linearGradient id="paint0_linear_59_1690" x1="27.1372" y1="11.4468" x2="2.41917" y2="18.0059" gradientUnits="userSpaceOnUse">
<stop stop-color="#00A0FF"/>
<stop offset="0.00657" stop-color="#00A1FF"/>
<stop offset="0.2601" stop-color="#00BEFF"/>
<stop offset="0.5122" stop-color="#00D2FF"/>
<stop offset="0.7604" stop-color="#00DFFF"/>
<stop offset="1" stop-color="#00E3FF"/>
</linearGradient>
<linearGradient id="paint1_linear_59_1690" x1="42.1192" y1="25.5638" x2="11.997" y2="25.5638" gradientUnits="userSpaceOnUse">
<stop stop-color="#FFE000"/>
<stop offset="0.4087" stop-color="#FFBD00"/>
<stop offset="0.7754" stop-color="#FFA500"/>
<stop offset="1" stop-color="#FF9C00"/>
</linearGradient>
<linearGradient id="paint2_linear_59_1690" x1="30.906" y1="28.4361" x2="10.9525" y2="61.8817" gradientUnits="userSpaceOnUse">
<stop stop-color="#FF3A44"/>
<stop offset="1" stop-color="#C31162"/>
</linearGradient>
<linearGradient id="paint3_linear_59_1690" x1="9.08125" y1="0.787441" x2="17.9833" y2="15.7248" gradientUnits="userSpaceOnUse">
<stop stop-color="#32A071"/>
<stop offset="0.0685" stop-color="#2DA771"/>
<stop offset="0.4762" stop-color="#15CF74"/>
<stop offset="0.8009" stop-color="#06E775"/>
<stop offset="1" stop-color="#00F076"/>
</linearGradient>
<clipPath id="clip0_59_1690">
<rect width="168.75" height="50" fill="white" transform="translate(0 0.563965)"/>
</clipPath>
</defs>
</svg>
