<svg width="50" height="51" viewBox="0 0 50 51" fill="none" xmlns="http://www.w3.org/2000/svg">
<rect y="0.5" width="50" height="50" rx="8" fill="#6E2BE2"/>
<path d="M24.5613 19.9257C23.5393 19.9257 21.9573 18.7637 20.2913 18.8057C18.0933 18.8337 16.0773 20.0797 14.9433 22.0537C12.6613 26.0157 14.3553 31.8677 16.5813 35.0877C17.6733 36.6557 18.9613 38.4197 20.6693 38.3637C22.3073 38.2937 22.9233 37.2997 24.9113 37.2997C26.8853 37.2997 27.4453 38.3637 29.1813 38.3217C30.9453 38.2937 32.0653 36.7257 33.1433 35.1437C34.3893 33.3237 34.9073 31.5597 34.9353 31.4617C34.8933 31.4477 31.5053 30.1457 31.4633 26.2257C31.4353 22.9497 34.1373 21.3817 34.2633 21.3117C32.7233 19.0577 30.3573 18.8057 29.5313 18.7497C27.3753 18.5817 25.5693 19.9257 24.5613 19.9257ZM28.2013 16.6217C29.1113 15.5297 29.7133 14.0037 29.5453 12.4917C28.2433 12.5477 26.6753 13.3597 25.7373 14.4517C24.8973 15.4177 24.1693 16.9717 24.3653 18.4557C25.8073 18.5677 27.2913 17.7137 28.2013 16.6217Z" fill="white"/>
</svg>
