<svg width="64" height="65" viewBox="0 0 64 65" fill="none" xmlns="http://www.w3.org/2000/svg">
<g clip-path="url(#clip0_8_1556)">
<path d="M60.4444 52.4499C59.7031 50.7379 58.8516 48.8802 56.8889 48.8802H55.1111C57.0738 48.8802 58.6667 47.2819 58.6667 45.3104V14.9602C58.6676 14.4923 58.5764 14.0288 58.3982 13.5962C58.22 13.1636 57.9584 12.7704 57.6282 12.4389C57.298 12.1074 56.9058 11.8442 56.4739 11.6643C56.0421 11.4844 55.579 11.3913 55.1111 11.3904H8.88889C6.92622 11.3904 5.33333 12.9886 5.33333 14.9602V45.3104C5.33333 47.2819 6.92622 48.8802 8.88889 48.8802H7.11111C5.14844 48.8802 4.14756 50.6651 3.55556 52.4499L0 61.1522C0 63.1255 1.59289 64.7237 3.55556 64.7237H60.4444C62.4071 64.7237 64 63.1255 64 61.1539L60.4444 52.4499Z" fill="#CCD6DD"/>
<path d="M0.0142212 61.3015L0.0248879 61.4028L0.32711 62.6331C0.607714 63.2547 1.06137 63.7825 1.63387 64.1532C2.20637 64.5239 2.8735 64.722 3.55555 64.7237H60.4444C61.3623 64.7207 62.2435 64.3628 62.9035 63.725C63.5636 63.0871 63.9514 62.2188 63.9858 61.3015H0.0142212Z" fill="#9AAAB4"/>
<path d="M55.1111 43.5237C55.1111 44.5104 54.3164 45.3086 53.3333 45.3086H10.6667C9.68533 45.3086 8.88889 44.5104 8.88889 43.5237V16.7468C8.88889 15.7601 9.68533 14.9619 10.6667 14.9619H53.3333C54.3164 14.9619 55.1111 15.7619 55.1111 16.7468V43.5237Z" fill="#5DADEC"/>
<path d="M58.4996 55.9094L57.1485 52.0427C56.7236 51.2249 56.0196 50.5547 55.0365 50.5547H9.08445C8.10312 50.5547 7.47379 51.28 7.02934 52.3965L5.80623 55.9111C5.4169 56.9707 6.60268 57.696 7.58401 57.696H21.056C21.056 57.696 22.7218 57.6125 23.0169 56.6151C23.3582 55.4631 23.7547 53.728 23.84 53.4222C23.9716 52.9529 24.5298 52.4782 25.3618 52.4782H40.6116C41.5005 52.4782 41.9378 52.928 42.0533 53.4845C42.128 53.8471 42.608 55.5129 42.832 56.6525C43.0293 57.6676 45.0027 57.6942 45.0027 57.6942H56.7253C57.7049 57.6942 58.8889 56.8569 58.4996 55.9094Z" fill="#AEBBC1"/>
<path d="M39.7778 59.5913H25.9449C25.2782 59.5913 24.9884 58.9815 25.0844 58.3913C25.1804 57.8029 25.7227 55.2038 25.7653 54.9015C25.8062 54.5975 26.2524 54.2349 26.6969 54.2349H39.168C39.696 54.2349 40.0391 54.5246 40.1458 55.1042C40.2507 55.6855 40.6827 58.0215 40.7164 58.5549C40.7502 59.09 40.416 59.5913 39.7778 59.5913Z" fill="#9AAAB4"/>
</g>
<defs>
<clipPath id="clip0_8_1556">
<rect width="64" height="64" fill="white" transform="translate(0 0.723633)"/>
</clipPath>
</defs>
</svg>
