<svg width="94" height="61" viewBox="0 0 94 61" fill="none" xmlns="http://www.w3.org/2000/svg">
<rect x="0.116943" y="0.563965" width="92.8944" height="60" rx="10" fill="#F8F8F8"/>
<g clip-path="url(#clip0_8_1697)">
<path d="M27.2492 21.2871C26.5356 22.1315 25.3938 22.7976 24.252 22.7024C24.1093 21.5606 24.6683 20.3475 25.3224 19.5982C26.0361 18.73 27.2849 18.1115 28.2958 18.064C28.4147 19.2533 27.9509 20.4189 27.2492 21.2871ZM28.2839 22.9284C26.6307 22.8332 25.2154 23.868 24.4304 23.868C23.6336 23.868 22.4323 22.976 21.1241 22.9997C19.4233 23.0235 17.8415 23.9869 16.9733 25.5211C15.1892 28.5897 16.5094 33.1329 18.234 35.6306C19.0784 36.8675 20.0893 38.2233 21.4214 38.1758C22.6821 38.1282 23.1816 37.3551 24.704 37.3551C26.2382 37.3551 26.6783 38.1758 28.0104 38.152C29.39 38.1282 30.2582 36.9151 31.1027 35.6781C32.066 34.2747 32.4585 32.907 32.4823 32.8356C32.4585 32.8118 29.8182 31.8009 29.7944 28.7562C29.7706 26.211 31.8757 24.9978 31.9709 24.9265C30.7815 23.1662 28.9262 22.976 28.2839 22.9284ZM37.8343 19.4793V38.0211H40.7126V31.6819H44.6969C48.3362 31.6819 50.8933 29.1843 50.8933 25.5687C50.8933 21.9531 48.3838 19.4793 44.792 19.4793H37.8343ZM40.7126 21.9055H44.0308C46.5284 21.9055 47.9557 23.2376 47.9557 25.5806C47.9557 27.9236 46.5284 29.2676 44.0189 29.2676H40.7126V21.9055ZM56.1502 38.1639C57.958 38.1639 59.635 37.2481 60.3962 35.7971H60.4557V38.0211H63.1198V28.7918C63.1198 26.1158 60.979 24.3913 57.6845 24.3913C54.6279 24.3913 52.3681 26.1396 52.2849 28.5421H54.8776C55.0917 27.4003 56.1502 26.651 57.6012 26.651C59.3615 26.651 60.3486 27.4717 60.3486 28.9821V30.005L56.7568 30.2191C53.4147 30.4212 51.6069 31.789 51.6069 34.1677C51.6069 36.5701 53.4742 38.1639 56.1502 38.1639ZM56.9233 35.9636C55.389 35.9636 54.4138 35.2262 54.4138 34.0963C54.4138 32.9308 55.3534 32.2528 57.1493 32.1458L60.3486 31.9436V32.9902C60.3486 34.7267 58.8738 35.9636 56.9233 35.9636ZM66.6759 43.064C69.4828 43.064 70.8029 41.9936 71.9566 38.7466L77.0113 24.5697H74.0855L70.6959 35.5235H70.6364L67.2468 24.5697H64.2378L69.1141 38.0687L68.8524 38.8894C68.4124 40.2809 67.6988 40.8161 66.4262 40.8161C66.2002 40.8161 65.7601 40.7923 65.5817 40.7685V42.9926C65.7482 43.0402 66.4618 43.064 66.6759 43.064Z" fill="black"/>
</g>
<defs>
<clipPath id="clip0_8_1697">
<rect width="60.8944" height="25" fill="white" transform="translate(16.1169 18.064)"/>
</clipPath>
</defs>
</svg>
