<svg width="50" height="51" viewBox="0 0 50 51" fill="none" xmlns="http://www.w3.org/2000/svg">
<rect y="0.723633" width="50" height="50" rx="25" fill="#E8F2EE"/>
<path d="M19.1667 16.3903V35.057H30.8333V16.3903H19.1667ZM18 14.057H32C32.3094 14.057 32.6062 14.1799 32.825 14.3987C33.0438 14.6175 33.1667 14.9143 33.1667 15.2237V36.2237C33.1667 36.5331 33.0438 36.8298 32.825 37.0486C32.6062 37.2674 32.3094 37.3903 32 37.3903H18C17.6906 37.3903 17.3938 37.2674 17.1751 37.0486C16.9563 36.8298 16.8333 36.5331 16.8333 36.2237V15.2237C16.8333 14.9143 16.9563 14.6175 17.1751 14.3987C17.3938 14.1799 17.6906 14.057 18 14.057ZM25 31.557C25.3094 31.557 25.6062 31.6799 25.825 31.8987C26.0438 32.1175 26.1667 32.4143 26.1667 32.7237C26.1667 33.0331 26.0438 33.3298 25.825 33.5486C25.6062 33.7674 25.3094 33.8903 25 33.8903C24.6906 33.8903 24.3938 33.7674 24.1751 33.5486C23.9563 33.3298 23.8333 33.0331 23.8333 32.7237C23.8333 32.4143 23.9563 32.1175 24.1751 31.8987C24.3938 31.6799 24.6906 31.557 25 31.557Z" fill="#645BB5"/>
</svg>
