<svg width="50" height="51" viewBox="0 0 50 51" fill="none" xmlns="http://www.w3.org/2000/svg">
<rect y="0.723633" width="50" height="50" rx="25" fill="#E8F2EE"/>
<path d="M22.6666 35.057H18V37.3903H15.6666V35.057H14.5C14.1906 35.057 13.8938 34.9341 13.675 34.7153C13.4562 34.4965 13.3333 34.1998 13.3333 33.8903V16.3903C13.3333 16.0809 13.4562 15.7842 13.675 15.5654C13.8938 15.3466 14.1906 15.2237 14.5 15.2237H22.6666V13.5787C22.6667 13.494 22.6852 13.4103 22.7208 13.3335C22.7564 13.2567 22.8083 13.1886 22.8729 13.1338C22.9376 13.0791 23.0133 13.0391 23.0949 13.0166C23.1766 12.9941 23.2621 12.9896 23.3456 13.0035L35.6913 15.0615C35.9637 15.1068 36.2113 15.2472 36.3898 15.4579C36.5684 15.6685 36.6665 15.9357 36.6666 16.2118V18.7237H37.8333V21.057H36.6666V29.2237H37.8333V31.557H36.6666V34.0688C36.6665 34.345 36.5684 34.6122 36.3898 34.8228C36.2113 35.0334 35.9637 35.1739 35.6913 35.2192L34.3333 35.4455V37.3903H32V35.8352L23.3456 37.2772C23.2621 37.2911 23.1766 37.2866 23.0949 37.2641C23.0133 37.2416 22.9376 37.2016 22.8729 37.1468C22.8083 37.0921 22.7564 37.024 22.7208 36.9472C22.6852 36.8703 22.6667 36.7867 22.6666 36.702V35.057ZM25 34.637L34.3333 33.0807V17.2L25 15.6448V34.6358V34.637ZM30.25 28.057C29.284 28.057 28.5 26.7503 28.5 25.1403C28.5 23.5303 29.284 22.2237 30.25 22.2237C31.216 22.2237 32 23.5303 32 25.1403C32 26.7503 31.216 28.057 30.25 28.057Z" fill="#645BB5"/>
</svg>
